<svg width="100" height="100" viewBox="0 0 100 100" fill="none" xmlns="http://www.w3.org/2000/svg">
<path d="M21.8672 80V77.8103C25.7003 77.8103 27.9363 77.1151 28.5751 75.7248V23.2752C27.9363 21.8849 25.7003 21.1897 21.8672 21.1897V19H48.0601C56.8621 19 63.5346 20.5641 68.0775 23.6923C72.6205 26.8205 74.8919 30.4006 74.8919 34.4325C74.8919 38.2558 73.7207 41.6274 71.3783 44.547C69.0358 47.3972 65.5576 49.4826 60.9437 50.8034L75.1049 75.6205C75.8147 77.0804 78.1572 77.8103 82.1323 77.8103V80H77.5538C71.9461 80 67.7936 79.6872 65.0962 79.0615C62.4698 78.4359 60.4823 76.9413 59.1336 74.5778L46.2501 52.2633H42.0975V75.7248C42.7364 77.1151 44.9723 77.8103 48.8055 77.8103V80H21.8672ZM42.0975 22.5453V48.718H45.6112C50.4381 48.718 54.1292 47.6752 56.6846 45.5898C59.2401 43.4348 60.5178 39.7504 60.5178 34.5368C60.5178 30.5048 59.0626 27.5157 56.1523 25.5692C53.3129 23.5533 49.3733 22.5453 44.3335 22.5453H42.0975Z" fill="#0F0F0F"/>
</svg>
