<svg width="100" height="100" viewBox="0 0 100 100" fill="none" xmlns="http://www.w3.org/2000/svg">
<path d="M21.8677 80V77.8103C25.7008 77.8103 27.9368 77.1151 28.5756 75.7248V23.2752C27.9368 21.8849 25.7008 21.1897 21.8677 21.1897V19H48.0606C56.8626 19 63.535 20.5641 68.078 23.6923C72.6209 26.8205 74.8924 30.4006 74.8924 34.4325C74.8924 38.2558 73.7212 41.6274 71.3787 44.547C69.0363 47.3972 65.5581 49.4826 60.9441 50.8034L75.1054 75.6205C75.8152 77.0804 78.1577 77.8103 82.1328 77.8103V80H77.5543C71.9466 80 67.7941 79.6872 65.0967 79.0615C62.4703 78.4359 60.4828 76.9413 59.1341 74.5778L46.2505 52.2633H42.098V75.7248C42.7369 77.1151 44.9728 77.8103 48.8059 77.8103V80H21.8677ZM42.098 22.5453V48.718H45.6117C50.4386 48.718 54.1297 47.6752 56.6851 45.5898C59.2405 43.4348 60.5182 39.7504 60.5182 34.5368C60.5182 30.5048 59.0631 27.5157 56.1528 25.5692C53.3134 23.5533 49.3738 22.5453 44.334 22.5453H42.098Z" fill="#F0F0F0"/>
</svg>
